<?xml version="1.0" standalone="no"?>
<!DOCTYPE svg PUBLIC "-//W3C//DTD SVG 20010904//EN"
 "http://www.w3.org/TR/2001/REC-SVG-20010904/DTD/svg10.dtd">
<svg version="1.0" xmlns="http://www.w3.org/2000/svg"
 width="1445.000000pt" height="1445.000000pt" viewBox="0 0 1445.000000 1445.000000"
 preserveAspectRatio="xMidYMid meet">
<metadata>
Created by potrace 1.14, written by Peter Selinger 2001-2017
</metadata>
<g transform="translate(0.000000,1445.000000) scale(0.100000,-0.100000)"
fill="#000000" stroke="none">
<path d="M5930 12418 c0 -4 -6 -8 -13 -8 -8 0 -24 -9 -37 -20 -12 -11 -27 -17
-31 -14 -5 3 -9 0 -9 -5 0 -6 -9 -11 -20 -11 -11 0 -23 -7 -26 -15 -4 -8 -10
-13 -14 -10 -5 3 -14 -8 -21 -24 -7 -16 -17 -27 -21 -25 -4 3 -10 -7 -14 -21
-3 -13 -9 -23 -13 -20 -4 2 -14 -11 -21 -30 -7 -19 -17 -32 -22 -29 -7 5 -10
-3 -7 -22 0 -3 -9 -14 -20 -23 -12 -10 -21 -21 -21 -24 0 -3 -19 -34 -43 -69
-24 -35 -99 -146 -168 -248 -68 -102 -127 -186 -131 -188 -5 -2 -8 -8 -8 -13
0 -10 -69 -110 -83 -120 -5 -3 -8 -10 -7 -14 1 -4 -7 -18 -19 -31 -12 -13 -21
-27 -21 -31 0 -3 -11 -21 -25 -39 -14 -18 -25 -37 -25 -42 0 -6 -4 -12 -8 -14
-9 -3 -98 -132 -122 -176 -8 -15 -21 -31 -27 -35 -7 -4 -13 -15 -13 -22 0 -8
-4 -15 -10 -15 -5 0 -10 -6 -10 -14 0 -8 -7 -16 -15 -20 -8 -3 -15 -12 -15
-21 0 -8 -4 -15 -8 -15 -4 0 -21 -22 -37 -50 -16 -27 -33 -50 -37 -50 -4 0 -8
-4 -8 -10 0 -12 -231 -354 -242 -358 -4 -2 -8 -8 -8 -13 0 -11 -79 -131 -110
-167 -11 -13 -20 -30 -20 -37 0 -7 -4 -15 -9 -17 -5 -1 -88 -122 -186 -268
-98 -146 -184 -270 -192 -277 -8 -6 -13 -13 -11 -15 2 -3 -200 -308 -211 -318
-3 -3 -12 -17 -20 -32 -8 -15 -22 -37 -33 -47 -10 -11 -18 -24 -18 -28 0 -4
-10 -20 -23 -35 -12 -15 -33 -46 -47 -69 -14 -23 -29 -47 -35 -53 -22 -25 -75
-107 -75 -116 0 -6 -4 -10 -9 -10 -5 0 -14 -13 -21 -30 -7 -16 -16 -30 -21
-30 -5 0 -9 -7 -9 -15 0 -9 -7 -18 -15 -21 -8 -4 -15 -10 -15 -16 0 -9 -121
-190 -148 -220 -8 -10 -11 -18 -6 -18 5 0 4 -4 -1 -8 -6 -4 -42 -54 -80 -112
-39 -58 -72 -107 -76 -110 -9 -8 -69 -101 -69 -106 0 -3 -6 -12 -12 -19 -27
-30 -38 -44 -38 -50 0 -7 -39 -63 -57 -83 -7 -7 -13 -19 -13 -27 0 -7 -7 -15
-15 -19 -8 -3 -15 -12 -15 -21 0 -8 -4 -15 -10 -15 -5 0 -10 -7 -10 -15 0 -8
-3 -15 -7 -15 -5 0 -21 -23 -38 -50 -16 -28 -33 -50 -37 -50 -4 0 -8 -4 -8
-10 0 -12 -111 -174 -122 -178 -4 -2 -8 -10 -8 -18 0 -8 -11 -27 -25 -42 -14
-15 -25 -30 -25 -35 0 -4 -9 -17 -20 -29 -11 -12 -20 -28 -20 -35 0 -7 -4 -13
-10 -13 -5 0 -10 -4 -10 -10 0 -5 -19 -35 -42 -66 -24 -31 -43 -60 -43 -65 0
-4 -10 -19 -22 -33 -13 -15 -23 -30 -23 -36 0 -5 -6 -13 -12 -17 -7 -4 -20
-20 -28 -34 -29 -51 -93 -144 -104 -151 -6 -4 -7 -8 -3 -8 5 0 2 -7 -5 -15
-31 -34 -38 -45 -31 -45 4 0 3 -4 -3 -8 -6 -4 -23 -25 -37 -48 -14 -22 -33
-48 -42 -57 -9 -10 -13 -17 -10 -17 4 0 -6 -17 -23 -37 -16 -21 -37 -53 -48
-70 -10 -18 -22 -33 -27 -33 -4 0 -5 -4 -2 -10 3 -5 2 -10 -3 -10 -5 0 -17
-16 -28 -35 -10 -19 -22 -35 -26 -35 -5 0 -8 -4 -8 -9 0 -6 -15 -31 -32 -57
-18 -25 -37 -53 -43 -62 -5 -9 -14 -21 -18 -26 -28 -39 -187 -277 -187 -282 0
-2 -11 -17 -25 -32 -14 -15 -25 -32 -25 -39 0 -7 -4 -13 -10 -13 -5 0 -10 -7
-10 -15 0 -7 -8 -18 -17 -24 -10 -5 -17 -13 -17 -18 2 -9 -51 -89 -73 -111 -7
-8 -11 -18 -8 -23 4 -5 2 -9 -3 -9 -8 0 -183 -254 -210 -305 -7 -14 -17 -25
-23 -25 -5 0 -9 -6 -9 -14 0 -7 -10 -24 -22 -38 -13 -14 -24 -31 -26 -39 -2
-8 -7 -16 -11 -19 -5 -3 -21 -25 -37 -49 -16 -24 -41 -62 -56 -84 -30 -47 -42
-64 -81 -118 -15 -21 -27 -43 -27 -48 0 -5 -7 -11 -15 -15 -8 -3 -15 -12 -15
-21 0 -8 -4 -15 -10 -15 -5 0 -10 -6 -10 -13 0 -7 -9 -23 -20 -35 -11 -12 -20
-26 -20 -32 0 -5 -4 -10 -10 -10 -5 0 -10 -7 -10 -15 0 -8 -4 -15 -10 -15 -5
0 -10 -6 -10 -13 0 -7 -8 -22 -17 -33 -10 -11 -40 -53 -68 -94 -27 -41 -52
-77 -55 -80 -3 -3 -12 -18 -20 -33 -8 -16 -24 -40 -37 -53 -12 -13 -19 -24
-16 -24 4 0 -4 -11 -17 -25 -13 -14 -20 -25 -15 -25 4 0 -2 -9 -15 -20 -13
-11 -20 -20 -16 -20 6 0 -40 -67 -55 -80 -3 -3 -14 -21 -25 -40 -10 -19 -22
-37 -25 -40 -12 -11 -389 -569 -389 -577 0 -2 -14 -24 -31 -49 -16 -24 -32
-54 -35 -67 -3 -12 -7 -29 -8 -37 -2 -8 2 -21 8 -29 8 -11 8 -13 -2 -7 -17 10
-15 -2 8 -39 21 -34 45 -49 61 -39 5 3 9 0 9 -5 0 -6 9 -11 21 -11 11 0 18 3
16 8 -8 11 59 9 70 -3 12 -13 -29 -129 -42 -118 -4 5 -5 3 -2 -3 3 -6 2 -26
-3 -45 -5 -19 -12 -58 -15 -88 -4 -30 -9 -63 -11 -75 -7 -34 -6 -136 1 -200 9
-79 11 -90 32 -150 9 -28 17 -54 18 -57 1 -13 51 -114 58 -117 4 -2 7 -10 7
-18 0 -8 9 -22 20 -31 11 -10 20 -21 20 -25 0 -24 207 -228 238 -235 6 -1 30
-16 55 -33 25 -16 50 -30 56 -30 6 0 11 -4 11 -10 0 -5 9 -10 20 -10 11 0 20
-4 20 -10 0 -5 9 -10 20 -10 11 0 20 -5 20 -11 0 -5 4 -8 9 -4 5 3 12 1 16 -5
4 -6 10 -8 15 -5 5 3 25 -4 44 -16 20 -11 36 -19 36 -16 0 3 23 -3 52 -13 28
-10 81 -19 117 -19 98 -2 424 -15 681 -26 58 -3 166 -7 240 -10 74 -2 198 -7
275 -11 77 -3 200 -7 272 -7 73 -1 133 -5 133 -8 0 -3 42 -6 93 -7 99 -1 318
-9 512 -17 133 -6 318 -14 500 -20 121 -5 347 -14 505 -21 47 -2 157 -6 245
-9 88 -3 205 -8 260 -10 55 -2 168 -7 250 -9 83 -3 150 -6 150 -7 0 -1 72 -4
355 -13 102 -3 185 -6 185 -7 0 -1 36 -3 80 -5 44 -2 145 -6 225 -9 80 -3 197
-8 260 -10 118 -5 340 -13 490 -20 47 -2 157 -6 245 -9 88 -3 210 -8 270 -11
61 -3 176 -7 257 -10 81 -2 152 -6 158 -10 5 -3 10 0 10 7 0 8 3 9 8 3 4 -6
48 -12 97 -12 138 -3 376 -13 418 -18 26 -3 35 -1 31 7 -5 7 -3 8 7 2 8 -5 30
-10 49 -10 19 -1 118 -5 220 -9 280 -10 332 -13 505 -20 88 -4 223 -8 299 -9
l140 -2 31 30 c18 17 49 45 69 61 21 17 69 77 107 135 37 58 81 123 96 145 16
22 55 85 87 139 32 55 63 105 68 110 9 12 191 299 260 411 23 39 45 72 48 75
9 9 29 44 44 76 8 17 19 35 25 38 6 4 9 11 6 16 -3 4 2 10 10 14 8 3 15 10 15
15 0 8 63 109 97 157 21 28 34 51 39 67 4 9 10 17 15 17 5 0 9 6 9 13 0 7 12
28 28 46 15 19 26 35 24 37 -1 2 11 23 28 46 16 22 30 47 30 55 0 8 5 11 10 8
6 -3 10 1 10 9 0 9 9 25 20 36 11 11 18 20 15 20 -8 0 57 94 67 98 4 2 8 9 8
16 0 12 103 175 118 185 4 4 8 13 10 21 2 8 10 22 18 31 8 8 14 19 14 23 0 4
5 12 10 19 24 29 150 227 150 236 0 6 5 11 10 11 6 0 10 5 10 10 0 6 5 16 10
23 6 7 36 53 66 102 31 50 63 95 71 102 8 6 13 13 11 15 -4 5 61 113 80 133 6
8 12 18 12 24 0 6 5 11 10 11 6 0 10 7 10 15 0 8 5 15 10 15 6 0 10 5 10 10 0
6 18 38 40 71 22 33 40 65 40 70 0 5 5 9 10 9 6 0 10 7 10 15 0 8 5 15 10 15
6 0 10 5 10 12 0 6 11 26 25 44 14 18 25 37 25 43 0 6 5 11 10 11 6 0 10 7 10
15 0 9 7 18 15 21 8 4 13 10 10 14 -3 5 2 15 10 23 8 9 15 20 15 26 0 6 4 11
9 11 5 0 12 12 15 26 4 15 10 24 13 21 3 -4 17 16 31 44 14 27 34 58 44 69 10
10 18 22 18 26 0 4 23 40 50 80 28 41 47 74 43 74 -5 0 0 5 10 11 9 5 17 14
17 19 0 5 27 49 60 99 33 50 60 93 60 97 0 3 11 20 25 38 14 18 25 38 25 44 0
7 5 12 10 12 6 0 10 7 10 15 0 8 5 15 10 15 6 0 10 7 10 15 0 8 5 15 10 15 6
0 10 7 10 15 0 8 5 15 10 15 6 0 10 7 10 15 0 8 5 15 10 15 6 0 9 3 8 8 -2 4
12 28 30 55 18 26 30 47 26 47 -4 0 1 7 12 15 10 8 15 15 10 15 -6 0 -2 6 7
13 9 6 17 19 19 27 2 8 13 26 26 40 12 13 22 30 22 37 0 7 4 13 8 13 8 0 30
38 29 50 0 3 11 18 26 34 15 16 27 33 27 38 0 5 11 24 25 42 14 18 25 38 25
44 0 7 5 12 11 12 5 0 8 4 5 9 -3 5 1 11 9 15 8 3 15 11 15 19 0 7 8 22 18 33
9 10 26 36 37 57 11 20 23 37 27 37 5 0 8 7 8 15 0 7 6 18 14 22 8 4 15 11 16
15 3 26 17 50 53 89 9 10 17 21 17 24 0 3 0 10 0 16 0 5 5 7 10 4 6 -3 10 0
10 8 0 15 60 110 72 115 5 2 6 7 3 12 -2 4 6 19 20 34 13 14 22 26 19 26 -4 0
65 109 76 120 3 3 14 22 25 43 11 20 23 37 27 37 5 0 8 4 8 10 0 5 29 55 65
110 36 54 68 106 71 115 3 8 10 12 15 9 5 -3 8 -2 7 3 -3 13 40 91 56 100 8 4
15 13 16 18 5 24 20 54 30 60 7 4 19 22 26 39 14 29 50 85 74 113 5 7 10 14
10 17 0 5 64 105 77 121 5 6 24 36 42 68 18 31 37 57 42 57 5 0 9 7 9 15 0 8
8 24 18 35 9 11 16 23 14 26 -2 3 7 14 19 25 12 10 19 19 15 19 -4 0 16 34 44
75 27 41 50 79 50 85 0 5 4 10 9 10 5 0 14 14 21 30 7 17 16 30 20 30 4 0 15
18 25 40 10 22 22 40 27 40 4 0 8 6 8 14 0 8 4 16 9 18 5 2 11 9 13 17 2 7 13
25 26 39 12 14 22 31 22 38 0 8 5 14 10 14 6 0 10 6 10 14 0 8 7 17 16 20 8 3
13 10 10 15 -4 5 1 16 9 24 8 9 15 20 15 26 0 6 5 11 10 11 6 0 10 7 10 15 0
8 5 15 10 15 6 0 10 5 10 11 0 6 12 26 26 45 15 19 22 34 18 34 -5 0 -4 4 1 8
6 4 39 50 72 102 34 52 66 100 72 107 6 7 11 19 11 28 0 8 4 15 8 15 5 0 21
22 36 50 15 27 31 50 37 50 5 0 9 5 9 12 0 7 31 58 70 115 38 56 72 114 76
128 3 14 11 25 17 25 6 0 8 3 4 6 -3 4 7 31 23 60 16 30 25 54 21 54 -4 0 -8
7 -8 15 0 8 4 12 8 9 4 -2 7 5 6 16 -1 11 -5 20 -9 20 -4 0 -8 9 -8 20 0 12
-7 20 -17 20 -9 0 -13 3 -10 7 6 5 -20 30 -33 31 -3 0 -18 7 -34 16 -16 8 -33
13 -38 10 -4 -3 -8 -1 -8 4 0 5 -19 12 -42 16 -23 4 -48 12 -55 18 -7 6 -13 8
-13 5 0 -3 -21 1 -47 9 -27 8 -59 17 -73 20 -14 2 -32 7 -40 11 -8 3 -23 8
-32 10 -10 1 -26 5 -35 6 -10 2 -25 7 -33 10 -8 4 -26 9 -40 11 -14 3 -25 5
-25 6 0 1 -10 3 -23 6 -40 7 -57 21 -103 81 -24 32 -47 60 -51 61 -5 2 -8 7
-8 12 0 5 -23 43 -50 84 -28 42 -50 79 -50 83 0 5 -9 19 -20 33 -11 14 -20 33
-20 43 0 9 -4 17 -10 17 -5 0 -10 4 -10 10 0 5 -18 48 -41 95 -68 145 -145
398 -174 580 -19 120 -27 410 -13 477 4 21 29 70 55 110 89 136 128 212 118
228 -3 6 -1 10 6 10 8 0 7 5 -2 17 -12 15 -12 16 1 8 12 -6 13 -5 3 6 -7 7
-13 21 -13 31 0 10 -4 18 -9 18 -5 0 -14 14 -20 30 -5 17 -15 30 -21 30 -6 0
-8 5 -5 10 4 6 -7 15 -24 21 -17 6 -31 16 -31 21 0 7 -5 6 -13 -1 -8 -6 -17
-7 -21 -3 -10 9 -57 12 -453 26 -67 3 -128 8 -134 12 -8 5 -9 3 -4 -6 6 -9 4
-11 -5 -5 -7 4 -72 9 -144 11 -72 1 -131 3 -131 4 0 2 -73 5 -335 14 -91 3
-165 6 -165 7 0 1 -74 4 -330 13 -77 3 -150 7 -162 10 -14 3 -23 0 -23 -7 0
-8 -3 -8 -8 -2 -4 6 -47 11 -97 12 -87 2 -220 7 -490 18 -71 3 -184 7 -250 10
-66 2 -132 6 -147 8 -16 3 -28 0 -28 -7 0 -7 -3 -8 -8 -1 -4 6 -34 11 -67 12
-136 3 -430 12 -430 14 0 2 -197 9 -327 12 -71 1 -128 4 -128 7 0 3 -53 6
-118 7 -122 2 -427 12 -427 14 0 1 -179 8 -348 13 -76 2 -141 7 -144 10 -3 3
-12 1 -20 -5 -7 -6 -13 -7 -13 -2 0 5 -35 9 -77 10 -43 1 -141 4 -218 7 -265
11 -410 17 -535 21 -69 2 -125 4 -125 5 0 7 -36 6 -41 -1 -3 -5 -11 -6 -17 -2
-7 4 -37 9 -67 10 -30 1 -127 4 -215 7 -88 3 -218 8 -290 11 -71 4 -186 8
-255 10 -69 2 -125 4 -125 5 0 7 -57 5 -61 -2 -3 -4 -11 -5 -17 -1 -13 8 -44
10 -249 16 -71 2 -128 0 -128 -5z m417 -6110 c-21 -14 -28 -9 -15 12 9 13 14
16 20 7 4 -6 2 -15 -5 -19z m4733 -832 c9 -12 8 -15 -8 -13 -12 0 -18 6 -15
14 6 16 8 16 23 -1z"/>
</g>
</svg>
